<?xml version="1.0"?>
<svg xmlns="http://www.w3.org/2000/svg" xmlns:xlink="http://www.w3.org/1999/xlink" version="1.1" id="Capa_1" x="0px" y="0px" viewBox="0 0 512 512" style="enable-background:new 0 0 512 512;" xml:space="preserve" width="512px" height="512px" class=""><g><g>
	<g>
		<path d="M392.17,19.271H119.83C53.755,19.271,0,73.025,0,139.101v315.37c0,15.905,9.091,29.473,23.732,35.399    c4.75,1.923,9.635,2.86,14.44,2.86c9.891,0,19.44-3.971,26.706-11.471l113.92-113.392H392.17c6.013,0,10.894-4.88,10.894-10.894    s-4.88-10.894-10.894-10.894H174.298c-2.881,0-5.643,1.138-7.685,3.17L49.364,465.953c-4.701,4.853-11.237,6.231-17.457,3.726    c-6.335-2.571-10.12-8.257-10.12-15.208v-315.37c0-54.06,43.983-98.043,98.043-98.043h272.34c54.06,0,98.043,43.983,98.043,98.043    v163.404c0,54.06-43.983,98.043-98.043,98.043H201.532c-6.013,0-10.894,4.88-10.894,10.894s4.88,10.894,10.894,10.894H392.17    c66.075,0,119.83-53.755,119.83-119.83V139.101C512,73.025,458.245,19.271,392.17,19.271z" data-original="#000000" class="active-path" data-old_color="#000000" fill="#FFFFFF"/>
	</g>
</g></g> </svg>
